<svg width="1613" height="432" viewBox="0 0 1613 432" fill="none" xmlns="http://www.w3.org/2000/svg">
<path d="M0 317.986V7.0144H62.9001L65.4939 89.4335L59.6578 87.6799C64.4131 59.6223 73.9238 39.1637 88.1898 26.304C102.888 13.4443 122.558 7.0144 147.199 7.0144H180.27V62.545H147.199C129.907 62.545 115.425 65.0779 103.753 70.1439C92.0805 75.2098 83.2183 83.0036 77.1661 93.5252C71.5461 104.047 68.7362 117.686 68.7362 134.442V317.986H0Z" fill="black"/>
<path d="M371.25 325C338.395 325 309.647 318.375 285.006 305.126C260.365 291.877 241.343 272.977 227.942 248.426C214.54 223.876 207.84 195.234 207.84 162.5C207.84 129.766 214.54 101.319 227.942 77.1583C241.343 52.6079 260.365 33.708 285.006 20.4586C309.647 6.81955 338.395 0 371.25 0C399.35 0 424.207 4.48142 445.823 13.4442C467.87 22.0174 485.594 34.6823 498.996 51.4388C512.829 68.1954 521.692 88.6541 525.582 112.815L453.604 116.322C450.146 96.0582 441.067 80.6655 426.369 70.1439C411.671 59.2326 393.298 53.777 371.25 53.777C342.286 53.777 319.59 63.5192 303.163 83.0036C287.167 102.098 279.17 128.597 279.17 162.5C279.17 196.403 287.167 223.097 303.163 242.581C319.59 261.676 342.286 271.223 371.25 271.223C393.298 271.223 411.671 265.767 426.369 254.856C441.067 243.555 450.146 226.604 453.604 204.002L525.582 207.509C521.692 231.28 512.829 251.933 498.996 269.469C485.594 287.005 467.87 300.644 445.823 310.387C424.207 320.129 399.35 325 371.25 325Z" fill="black"/>
<path d="M730.307 325C697.452 325 668.703 318.375 644.062 305.126C619.421 291.877 600.4 272.977 586.998 248.426C573.597 223.876 566.896 195.234 566.896 162.5C566.896 129.377 573.597 100.734 586.998 76.5738C600.4 52.4131 619.421 33.708 644.062 20.4586C668.703 6.81955 697.452 0 730.307 0C763.162 0 791.91 6.81955 816.551 20.4586C841.192 33.708 860.214 52.4131 873.615 76.5738C887.016 100.734 893.717 129.377 893.717 162.5C893.717 195.234 887.016 223.876 873.615 248.426C860.214 272.977 841.192 291.877 816.551 305.126C791.91 318.375 763.162 325 730.307 325ZM730.307 271.223C759.703 271.223 782.399 261.676 798.394 242.581C814.39 223.097 822.387 196.403 822.387 162.5C822.387 128.597 814.39 102.098 798.394 83.0036C782.399 63.5192 759.703 53.777 730.307 53.777C701.342 53.777 678.646 63.5192 662.219 83.0036C646.224 102.098 638.226 128.597 638.226 162.5C638.226 196.403 646.224 223.097 662.219 242.581C678.646 261.676 701.342 271.223 730.307 271.223Z" fill="black"/>
<path d="M963.183 317.986V7.0144H1026.08L1028.68 90.018L1020.25 85.9263C1024.14 65.6625 1031.49 49.2956 1042.29 36.8255C1053.1 24.3555 1066.29 15.1979 1081.85 9.35254C1097.41 3.11751 1114.27 0 1132.43 0C1158.37 0 1179.77 5.26079 1196.63 15.7824C1213.92 25.9143 1226.89 39.943 1235.53 57.8687C1244.61 75.4047 1249.15 95.4736 1249.15 118.076V317.986H1180.42V136.781C1180.42 118.465 1178.25 103.073 1173.93 90.6025C1169.61 78.1325 1162.47 68.5851 1152.53 61.9604C1142.59 55.3357 1129.62 52.0234 1113.62 52.0234C1089.42 52.0234 1069.75 59.2326 1054.61 73.6511C1039.48 88.0696 1031.92 109.113 1031.92 136.781V317.986H963.183Z" fill="black"/>
<path d="M1471.64 325C1439.21 325 1411.76 320.519 1389.28 311.556C1367.24 302.593 1350.16 290.318 1338.06 274.73C1325.95 258.753 1319.03 240.438 1317.3 219.784L1387.99 216.862C1391.44 234.008 1399.66 247.647 1412.63 257.779C1425.6 267.911 1445.27 272.977 1471.64 272.977C1493.25 272.977 1510.33 269.859 1522.86 263.624C1535.4 257.389 1541.67 247.452 1541.67 233.813C1541.67 226.409 1539.51 220.174 1535.19 215.108C1531.29 209.652 1523.51 205.171 1511.84 201.664C1500.17 197.767 1482.88 194.065 1459.96 190.558C1425.81 184.712 1399.01 177.893 1379.56 170.099C1360.1 162.305 1346.27 152.368 1338.06 140.288C1329.84 128.207 1325.73 113.594 1325.73 96.4479C1325.73 68.0006 1337.41 44.8142 1360.75 26.8885C1384.53 8.96283 1418.68 0 1463.21 0C1493.04 0 1518.11 4.67626 1538.43 14.0288C1558.75 22.9916 1574.53 35.2668 1585.76 50.8543C1597.44 66.0522 1604.79 83.1985 1607.81 102.293L1537.13 105.8C1534.97 94.8891 1530.65 85.5366 1524.16 77.7428C1518.11 69.5594 1509.9 63.3243 1499.52 59.0378C1489.15 54.3615 1476.82 52.0234 1462.56 52.0234C1440.51 52.0234 1424.08 55.9203 1413.28 63.714C1402.47 71.5078 1397.06 81.6397 1397.06 94.1097C1397.06 103.462 1399.44 111.061 1404.2 116.906C1409.39 122.752 1417.6 127.623 1428.84 131.52C1440.08 135.027 1454.99 138.145 1473.58 140.872C1509.46 146.328 1537.56 153.148 1557.88 161.331C1578.2 169.125 1592.47 178.867 1600.68 190.558C1608.89 202.248 1613 216.472 1613 233.228C1613 252.713 1606.95 269.275 1594.84 282.914C1582.74 296.553 1566.1 307.074 1544.91 314.478C1523.73 321.493 1499.3 325 1471.64 325Z" fill="black"/>
<rect x="682.631" y="276" width="70" height="150" transform="rotate(45 682.631 276)" fill="black"/>
</svg>
