<svg width="65" height="25" viewBox="0 0 65 25" fill="none" xmlns="http://www.w3.org/2000/svg">
<path d="M0 18.3704V0L1.67413 0.837063C4.87008 2.43504 6.88889 5.70154 6.88889 9.27472C6.88889 13.3352 4.29059 16.9402 0.438457 18.2242L0 18.3704Z" fill="url(#paint0_radial_2866_271)"/>
<path d="M0 18.3704V0L1.67413 0.837063C4.87008 2.43504 6.88889 5.70154 6.88889 9.27472C6.88889 13.3352 4.29059 16.9402 0.438457 18.2242L0 18.3704Z" fill="black"/>
<path d="M6.86111 19.5185H0V24.1111H17.1237C14.5126 21.189 10.7798 19.5185 6.86111 19.5185Z" fill="url(#paint1_radial_2866_271)"/>
<path d="M6.86111 19.5185H0V24.1111H17.1237C14.5126 21.189 10.7798 19.5185 6.86111 19.5185Z" fill="black"/>
<path d="M10.5707 18.3704L12.3046 16.9234C14.6933 14.9301 16.0741 11.9794 16.0741 8.86819C16.0741 6.80432 15.6589 4.76154 14.8532 2.86141L13.64 0H31V5.74074V24.1111H25.1837L21.08 19.5185L23.0417 18.0048C26.6064 15.2543 29.2327 11.4682 30.5602 7.1659L31 5.74074H21.7C21.7 10.6045 18.7667 14.9882 14.2707 16.8436L10.5707 18.3704Z" fill="url(#paint2_radial_2866_271)"/>
<path d="M10.5707 18.3704L12.3046 16.9234C14.6933 14.9301 16.0741 11.9794 16.0741 8.86819C16.0741 6.80432 15.6589 4.76154 14.8532 2.86141L13.64 0H31V5.74074V24.1111H25.1837L21.08 19.5185L23.0417 18.0048C26.6064 15.2543 29.2327 11.4682 30.5602 7.1659L31 5.74074H21.7C21.7 10.6045 18.7667 14.9882 14.2707 16.8436L10.5707 18.3704Z" fill="black"/>
<path d="M44.1477 18.0557V6.4193H48.5114C49.4053 6.4193 50.1553 6.58597 50.7614 6.9193C51.3712 7.25263 51.8314 7.71097 52.142 8.2943C52.4564 8.87385 52.6136 9.53294 52.6136 10.2716C52.6136 11.0178 52.4564 11.6807 52.142 12.2602C51.8277 12.8398 51.3636 13.2962 50.75 13.6295C50.1364 13.9591 49.3807 14.1238 48.483 14.1238H45.5909V12.3909H48.1989C48.7216 12.3909 49.1496 12.3 49.483 12.1182C49.8163 11.9363 50.0625 11.6863 50.2216 11.3682C50.3845 11.05 50.4659 10.6845 50.4659 10.2716C50.4659 9.85869 50.3845 9.49506 50.2216 9.18066C50.0625 8.86627 49.8144 8.62195 49.4773 8.44771C49.1439 8.26968 48.714 8.18066 48.1875 8.18066H46.2557V18.0557H44.1477ZM61.4162 18.0557L57.5866 12.9704H56.5526V18.0557H54.4446V6.4193H56.5526V11.2034H57.081L61.2173 6.4193H63.8139L59.2173 11.7261L64.0128 18.0557H61.4162Z" fill="#010101"/>
<defs>
<radialGradient id="paint0_radial_2866_271" cx="0" cy="0" r="1" gradientTransform="matrix(8.06 -29.8519 38.381 8.88448 8.06 33.2963)" gradientUnits="userSpaceOnUse">
<stop stop-color="#DEDEDE"/>
<stop offset="0.610577" stop-color="#1043B2"/>
<stop offset="1"/>
</radialGradient>
<radialGradient id="paint1_radial_2866_271" cx="0" cy="0" r="1" gradientTransform="matrix(8.06 -29.8519 38.381 8.88448 8.06 33.2963)" gradientUnits="userSpaceOnUse">
<stop stop-color="#DEDEDE"/>
<stop offset="0.610577" stop-color="#1043B2"/>
<stop offset="1"/>
</radialGradient>
<radialGradient id="paint2_radial_2866_271" cx="0" cy="0" r="1" gradientTransform="matrix(8.06 -29.8519 38.381 8.88448 8.06 33.2963)" gradientUnits="userSpaceOnUse">
<stop stop-color="#DEDEDE"/>
<stop offset="0.610577" stop-color="#1043B2"/>
<stop offset="1"/>
</radialGradient>
</defs>
</svg>
