<svg width="573" height="577" viewBox="0 0 573 577" fill="none" xmlns="http://www.w3.org/2000/svg">
<path d="M317.5 441C274.174 441 236.26 432.745 203.764 416.237C171.269 399.726 146.183 376.173 128.51 345.58C110.837 314.987 102 279.293 102 238.5C102 197.223 110.837 161.532 128.51 131.423C146.183 101.315 171.269 78.0054 203.764 61.4946C236.26 44.4992 274.174 36 317.5 36C360.829 36 398.743 44.4992 431.236 61.4946C463.734 78.0054 488.817 101.315 506.49 131.423C524.163 161.532 533 197.223 533 238.5C533 279.293 524.163 314.987 506.49 345.58C488.817 376.173 463.734 399.726 431.236 416.237C398.743 432.745 360.829 441 317.5 441ZM317.5 373.988C356.268 373.988 386.199 362.09 407.293 338.293C428.388 314.015 438.932 280.749 438.932 238.5C438.932 196.254 428.388 163.232 407.293 139.435C386.199 115.156 356.268 103.015 317.5 103.015C279.303 103.015 249.374 115.156 227.71 139.435C206.615 163.232 196.068 196.254 196.068 238.5C196.068 280.749 206.615 314.015 227.71 338.293C249.374 362.09 279.303 373.988 317.5 373.988Z" fill="white"/>
<path d="M225.208 381.639C227.783 379.456 231.451 379.124 234.375 380.809L293.64 414.96C298.409 417.708 299.043 424.339 294.881 427.94L167.254 538.396C165.8 539.655 163.942 540.347 162.019 540.347H59.8078C52.3591 540.347 48.9528 531.062 54.6346 526.245L225.208 381.639Z" fill="white"/>
</svg>
